<?xml version="1.0" encoding="UTF-8" standalone="no"?>
<svg
   xmlns:dc="http://purl.org/dc/elements/1.1/"
   xmlns:cc="http://creativecommons.org/ns#"
   xmlns:rdf="http://www.w3.org/1999/02/22-rdf-syntax-ns#"
   xmlns:svg="http://www.w3.org/2000/svg"
   xmlns="http://www.w3.org/2000/svg"
   xmlns:sodipodi="http://sodipodi.sourceforge.net/DTD/sodipodi-0.dtd"
   xmlns:inkscape="http://www.inkscape.org/namespaces/inkscape"
   width="100.80624mm"
   height="100.80624mm"
   viewBox="0 0 100.80624 100.80624"
   version="1.1"
   id="svg18"
   sodipodi:docname="sood-logo.one-line.svg"
   inkscape:version="1.0.1 (3bc2e813f5, 2020-09-07)">
  <defs
     id="defs12" />
  <sodipodi:namedview
     id="base"
     pagecolor="#ffffff"
     bordercolor="#666666"
     borderopacity="1.0"
     inkscape:pageopacity="0.0"
     inkscape:pageshadow="2"
     inkscape:zoom="4.0865605"
     inkscape:cx="286.92132"
     inkscape:cy="178.26215"
     inkscape:document-units="mm"
     inkscape:current-layer="svg18"
     inkscape:document-rotation="0"
     showgrid="true"
     showguides="false"
     inkscape:guide-bbox="true"
     inkscape:snap-page="false"
     guidetolerance="10000"
     objecttolerance="20"
     gridtolerance="10"
     inkscape:window-width="3000"
     inkscape:window-height="1940"
     inkscape:window-x="0"
     inkscape:window-y="0"
     inkscape:window-maximized="1">
    <inkscape:grid
       type="xygrid"
       id="grid22"
       enabled="true"
       spacingx="1.0583333"
       spacingy="1.0583333"
       originx="-0.46994623"
       originy="-0.85519635" />
    <sodipodi:guide
       position="39.217555,38.161444"
       orientation="1,0"
       id="guide26" />
    <sodipodi:guide
       position="139.75922,34.986434"
       orientation="1,0"
       id="guide28" />
    <sodipodi:guide
       position="139.75922,34.986434"
       orientation="0,-1"
       id="guide34" />
    <sodipodi:guide
       position="56.415472,-38.56773"
       orientation="0,-1"
       id="guide36" />
  </sodipodi:namedview>
  <metadata
     id="metadata15">
    <rdf:RDF>
      <cc:Work
         rdf:about="">
        <dc:format>image/svg+xml</dc:format>
        <dc:type
           rdf:resource="http://purl.org/dc/dcmitype/StillImage" />
        <dc:title />
      </cc:Work>
    </rdf:RDF>
  </metadata>
  <ellipse
     style="fill:#353333;fill-opacity:1;stroke:#000000;stroke-width:0.264583;stroke-opacity:1"
     id="path885"
     cx="50.403118"
     cy="50.403122"
     rx="50.270828"
     ry="50.270832" />
  <path
     id="path885-3"
     style="fill:#d5bc55;fill-opacity:1;stroke:#000000;stroke-width:0.236167;stroke-opacity:1"
     d="M 50.330052,5.4948036 A 44.871751,44.871753 0 0 0 9.317567,32.161394 39.567696,39.537901 0 0 1 44.478213,10.757015 39.567696,39.537901 0 0 1 80.874438,34.786039 34.206299,34.260977 0 0 0 50.408083,16.101911 a 34.206299,34.260977 0 0 0 -0.121957,0 34.206299,34.260977 0 0 0 -31.487482,21.166666 28.894955,29.049585 0 0 1 25.805658,-15.98042 28.894955,29.049585 0 0 1 27.235031,19.345589 23.620916,23.620916 0 0 0 -21.6116,-14.088546 23.620916,23.620916 0 0 0 -0.105421,0 A 23.620916,23.620916 0 0 0 27.322153,44.396822 18.362754,18.188946 0 0 1 44.688019,32.119021 18.362754,18.188946 0 0 1 63.050721,50.30809 18.362754,18.188946 0 0 1 44.688019,68.497159 18.362754,18.188946 0 0 1 27.628594,57.037913 23.620916,23.620916 0 0 0 50.227733,73.78676 23.620916,23.620916 0 0 0 72.354546,58.432142 28.894955,29.049585 0 0 1 44.604302,79.387452 28.894955,29.049585 0 0 1 18.683404,63.17397 34.206299,34.260977 0 0 0 50.408083,84.623826 34.206299,34.260977 0 0 0 80.502887,66.647661 39.567696,39.537901 0 0 1 44.478213,89.83281 39.567696,39.537901 0 0 1 8.8850368,67.564919 44.871751,44.871753 0 0 0 50.330052,95.238681 44.871751,44.871753 0 0 0 95.201729,50.367002 44.871751,44.871753 0 0 0 50.330052,5.4948036 Z" />
</svg>
