<?xml version="1.0" encoding="UTF-8" standalone="no"?>
<svg
   xmlns:dc="http://purl.org/dc/elements/1.1/"
   xmlns:cc="http://creativecommons.org/ns#"
   xmlns:rdf="http://www.w3.org/1999/02/22-rdf-syntax-ns#"
   xmlns:svg="http://www.w3.org/2000/svg"
   xmlns="http://www.w3.org/2000/svg"
   xmlns:sodipodi="http://sodipodi.sourceforge.net/DTD/sodipodi-0.dtd"
   xmlns:inkscape="http://www.inkscape.org/namespaces/inkscape"
   width="100.80625mm"
   height="100.8063mm"
   viewBox="0 0 100.80625 100.8063"
   version="1.1"
   id="svg18"
   sodipodi:docname="sood-logo.inverse-one-line.svg"
   inkscape:version="1.0.1 (3bc2e813f5, 2020-09-07)">
  <defs
     id="defs12" />
  <sodipodi:namedview
     id="base"
     pagecolor="#ffffff"
     bordercolor="#666666"
     borderopacity="1.0"
     inkscape:pageopacity="0.0"
     inkscape:pageshadow="2"
     inkscape:zoom="4.0865605"
     inkscape:cx="285.91428"
     inkscape:cy="82.147823"
     inkscape:document-units="mm"
     inkscape:current-layer="svg18"
     inkscape:document-rotation="0"
     showgrid="true"
     showguides="false"
     inkscape:guide-bbox="true"
     inkscape:snap-page="false"
     guidetolerance="10000"
     objecttolerance="20"
     gridtolerance="10"
     inkscape:window-width="3000"
     inkscape:window-height="1940"
     inkscape:window-x="0"
     inkscape:window-y="0"
     inkscape:window-maximized="1">
    <inkscape:grid
       type="xygrid"
       id="grid22"
       enabled="true"
       spacingx="1.0583333"
       spacingy="1.0583333"
       originx="-0.73639099"
       originy="-0.64693508" />
    <sodipodi:guide
       position="38.951108,37.953242"
       orientation="1,0"
       id="guide26" />
    <sodipodi:guide
       position="139.49277,34.778232"
       orientation="1,0"
       id="guide28" />
    <sodipodi:guide
       position="139.49277,34.778232"
       orientation="0,-1"
       id="guide34" />
    <sodipodi:guide
       position="56.149024,-38.775928"
       orientation="0,-1"
       id="guide36" />
  </sodipodi:namedview>
  <metadata
     id="metadata15">
    <rdf:RDF>
      <cc:Work
         rdf:about="">
        <dc:format>image/svg+xml</dc:format>
        <dc:type
           rdf:resource="http://purl.org/dc/dcmitype/StillImage" />
        <dc:title />
      </cc:Work>
    </rdf:RDF>
  </metadata>
  <path
     id="path885"
     style="fill:#353333;fill-opacity:1;stroke:#000000;stroke-width:0.264583;stroke-opacity:1"
     d="M 50.254296,0.13234657 A 50.270827,50.27083 0 0 0 0.1322915,50.40318 50.270827,50.27083 0 0 0 50.403125,100.67401 50.270827,50.27083 0 0 0 100.67396,50.40318 50.270827,50.27083 0 0 0 50.403125,0.13234657 a 50.270827,50.27083 0 0 0 -0.148829,0 z m 0.07596,5.36246123 A 44.871751,44.871753 0 0 1 95.201937,50.367006 44.871751,44.871753 0 0 1 50.330261,95.238685 44.871751,44.871753 0 0 1 8.8852452,67.564923 39.567696,39.537901 0 0 0 44.478421,89.832814 39.567696,39.537901 0 0 0 80.503095,66.647665 34.206299,34.260977 0 0 1 50.408292,84.62383 34.206299,34.260977 0 0 1 18.683613,63.173974 28.894955,29.049585 0 0 0 44.604511,79.387456 28.894955,29.049585 0 0 0 72.354754,58.432146 23.620915,23.620915 0 0 1 50.227941,73.786764 23.620915,23.620915 0 0 1 27.628802,57.037917 18.362754,18.188946 0 0 0 44.688228,68.497163 18.362754,18.188946 0 0 0 63.05093,50.308094 18.362754,18.188946 0 0 0 44.688228,32.119025 18.362754,18.188946 0 0 0 27.322362,44.396826 23.620915,23.620915 0 0 1 50.122521,26.545204 a 23.620915,23.620915 0 0 1 0.10542,0 A 23.620915,23.620915 0 0 1 71.839542,40.63375 28.894955,29.049585 0 0 0 44.604511,21.28816 28.894955,29.049585 0 0 0 18.798852,37.268581 34.206299,34.260977 0 0 1 50.286335,16.101914 a 34.206299,34.260977 0 0 1 0.121957,0 A 34.206299,34.260977 0 0 1 80.874647,34.786043 39.567696,39.537901 0 0 0 44.478421,10.757019 39.567696,39.537901 0 0 0 9.317775,32.161398 44.871751,44.871753 0 0 1 50.330261,5.4948078 Z" />
</svg>
